<svg width="212" height="73" viewBox="0 0 212 73" fill="none" xmlns="http://www.w3.org/2000/svg">
<path d="M203.54 16.655L209.157 27.8979C209.711 29.0081 210 30.232 210 31.473V40.7929V45.5708C210 47.7504 209.111 49.8355 207.538 51.3442L199.665 58.8963V58.8963C196.897 62.0923 191.819 61.6667 189.622 58.0546L188.809 56.7168C188.3 55.8794 187.629 55.1518 186.835 54.5766L176.027 46.7427C175.708 46.5121 175.374 46.3053 175.025 46.1239L164.783 40.7929L164.495 40.5875C162.751 39.3402 161.58 37.4446 161.246 35.3262L159.293 22.9491C159.221 22.4895 159.108 22.0371 158.957 21.5971L154.447 8.4653L153.586 6.61923C152.273 3.80126 149.445 1.99979 146.336 1.99979H130.749C130.185 1.99979 129.623 2.05942 129.071 2.17768L112.386 5.75628C112.005 5.83805 111.63 5.94758 111.265 6.084L84.3476 16.137C83.4308 16.4794 82.5845 16.9872 81.8509 17.635L54.1743 42.0778C53.8434 42.3701 53.5372 42.6893 53.2589 43.0322L33.6553 67.1816C29.9532 71.7421 22.7627 70.8911 20.2276 65.5923L11.0435 46.3963L2 26.5688" stroke="#4E54C8" stroke-width="4"/>
</svg>
